<?xml version="1.0" standalone="no"?>
<!DOCTYPE svg PUBLIC "-//W3C//DTD SVG 20010904//EN"
 "http://www.w3.org/TR/2001/REC-SVG-20010904/DTD/svg10.dtd">
<svg version="1.0" xmlns="http://www.w3.org/2000/svg"
 width="1024.000000pt" height="1024.000000pt" viewBox="0 0 1024.000000 1024.000000"
 preserveAspectRatio="xMidYMid meet">
<metadata>
Created by potrace 1.15, written by Peter Selinger 2001-2017
</metadata>
<g transform="translate(0.000000,1024.000000) scale(0.100000,-0.100000)"
fill="#000000" stroke="none">
<path d="M4730 10195 c-135 -19 -237 -42 -369 -82 -103 -31 -120 -33 -156 -23
-63 17 -310 25 -377 11 -65 -14 -128 -45 -195 -96 -46 -35 -46 -35 -152 -35
-139 0 -247 -26 -376 -90 -55 -28 -129 -74 -165 -103 -51 -41 -78 -56 -120
-64 -233 -47 -436 -223 -535 -464 -32 -78 -35 -81 -99 -119 -140 -82 -291
-216 -387 -343 -113 -149 -161 -276 -174 -458 l-7 -94 -53 -55 c-139 -146
-211 -320 -222 -535 -7 -161 26 -295 103 -406 23 -34 24 -43 26 -195 1 -159 1
-159 -36 -274 -31 -95 -37 -125 -33 -172 7 -84 53 -163 135 -230 88 -73 120
-88 184 -88 l53 -1 -37 -34 c-29 -27 -46 -35 -75 -35 -45 0 -93 27 -124 69
-31 42 -39 39 -39 -12 0 -77 27 -145 78 -196 93 -93 243 -96 340 -8 20 18 22
19 22 3 0 -9 25 -42 56 -73 l56 -56 -31 -31 -31 -31 -47 17 c-26 9 -49 15 -51
13 -12 -11 14 -63 46 -95 27 -27 52 -40 92 -50 35 -8 66 -23 86 -42 l32 -30
-39 -76 c-115 -223 -137 -460 -70 -727 38 -155 168 -567 272 -866 125 -361
145 -427 158 -524 25 -182 33 -219 61 -281 57 -127 170 -210 323 -239 55 -10
146 -15 298 -15 225 0 337 -13 401 -46 37 -19 82 -101 107 -193 11 -42 45
-227 76 -411 30 -184 64 -373 74 -420 11 -47 18 -86 16 -88 -1 -2 -16 21 -33
51 -68 120 -97 235 -192 752 -45 245 -48 255 -60 255 -14 0 -174 -72 -287
-128 -346 -174 -716 -433 -980 -686 -248 -238 -415 -487 -488 -727 l-28 -94
-102 -78 c-254 -193 -441 -366 -600 -552 -167 -197 -292 -367 -384 -522 l-30
-53 182 0 182 1 88 147 c156 262 347 522 545 744 l87 97 7 -117 c3 -64 13
-148 22 -185 10 -44 16 -115 16 -202 0 -177 27 -300 94 -433 l26 -52 463 0
462 0 29 53 c112 201 260 459 389 675 l151 253 19 -41 c23 -48 77 -84 155
-101 44 -11 53 -17 58 -38 20 -97 65 -154 148 -192 79 -36 222 -17 265 34 18
23 25 22 73 -13 86 -62 210 -75 297 -31 35 18 121 102 121 118 0 5 4 14 9 21
6 10 16 8 47 -9 21 -13 41 -24 43 -26 2 -1 -52 -60 -120 -130 -167 -172 -301
-332 -423 -505 l-48 -68 99 1 98 0 105 127 c145 174 456 490 630 640 80 68
287 230 460 360 380 284 439 331 553 441 237 229 402 500 586 958 96 242 133
317 197 402 42 56 121 127 131 118 2 -2 -6 -24 -17 -49 -41 -93 -98 -362 -88
-414 2 -13 19 4 59 61 31 44 71 93 88 109 38 36 39 30 15 -92 -9 -45 -14 -85
-11 -88 10 -10 48 17 67 49 65 105 -52 -231 -135 -391 -63 -120 -63 -122 -37
-116 53 13 124 45 179 80 30 19 51 29 47 22 -90 -153 -220 -303 -379 -436 -49
-42 -94 -80 -100 -85 -6 -6 31 -7 100 -5 103 5 172 21 269 63 19 8 19 7 -1
-21 -110 -154 -332 -329 -527 -414 -42 -18 -73 -36 -69 -40 16 -15 140 -41
221 -47 46 -3 79 -9 75 -13 -4 -4 -53 -34 -108 -65 -181 -104 -400 -191 -618
-245 -192 -49 -198 -50 -192 -60 9 -14 166 -67 267 -89 69 -15 134 -21 220
-21 l123 0 -25 -20 c-80 -63 -299 -148 -538 -209 -361 -93 -545 -183 -879
-433 l-98 -73 633 -3 633 -2 62 67 c374 408 837 819 1245 1107 116 82 424 276
438 276 3 0 -93 -102 -214 -228 -328 -339 -459 -490 -666 -766 -126 -167 -321
-454 -314 -461 2 -3 80 57 174 132 224 180 403 314 546 406 380 249 803 432
1025 445 178 10 246 -24 736 -368 l21 -15 -19 33 c-11 19 -62 91 -114 160
-313 421 -889 1003 -1294 1307 l-79 59 7 85 c8 104 -8 261 -40 397 -84 353
-273 601 -627 820 -27 16 -48 31 -48 34 0 3 16 21 35 39 20 18 47 55 60 81
l24 47 73 5 c173 12 313 113 399 287 18 35 37 95 42 132 10 61 14 68 44 85 44
23 116 100 142 152 30 59 68 199 76 279 l7 69 76 18 c191 45 371 152 543 325
172 173 278 343 348 558 46 143 56 213 55 393 -1 145 -4 177 -27 263 -30 113
-79 221 -132 291 l-38 48 21 87 c42 170 47 222 46 436 0 228 -15 332 -71 495
-83 244 -250 476 -429 597 l-61 42 -6 69 c-15 156 -92 374 -176 495 -84 123
-213 228 -322 264 l-55 18 -28 86 c-71 224 -275 441 -521 555 -217 100 -536
155 -800 138 l-100 -6 -100 63 c-316 199 -648 291 -1045 288 -85 -1 -198 -7
-250 -14z m-127 -260 c32 -8 79 -26 105 -39 57 -29 166 -115 157 -125 -4 -3
-41 -11 -83 -17 l-77 -10 110 -57 c61 -31 152 -79 203 -107 50 -28 92 -48 92
-45 0 3 -13 23 -29 43 -16 20 -31 46 -33 57 -3 18 2 20 67 19 98 -1 167 -36
268 -136 42 -42 77 -82 77 -89 0 -8 -14 -9 -47 -4 -57 8 -64 15 107 -112 220
-164 317 -264 406 -418 l28 -50 -59 53 c-115 102 -292 210 -455 276 -88 36
-97 33 -45 -15 58 -54 171 -188 223 -265 39 -58 122 -214 122 -229 0 -4 -27
18 -59 48 -33 30 -94 76 -137 103 -79 49 -232 113 -272 114 -20 0 -15 -9 39
-72 89 -104 170 -232 233 -372 59 -131 130 -326 118 -325 -4 0 -37 42 -74 93
-220 304 -484 543 -758 685 -96 50 -342 161 -356 161 -17 0 12 -36 117 -147
137 -145 229 -259 283 -351 l36 -64 -57 50 c-64 55 -170 125 -250 166 -58 29
-203 80 -209 73 -3 -2 40 -49 94 -103 121 -123 221 -270 318 -469 41 -82 74
-154 74 -160 0 -5 -48 38 -107 96 -136 134 -215 200 -345 287 -113 76 -355
212 -377 212 -8 0 42 -57 110 -127 165 -169 255 -292 326 -444 l23 -51 -74 69
c-95 89 -218 171 -370 248 -126 63 -260 114 -272 103 -3 -4 21 -38 55 -75 59
-64 95 -117 188 -278 23 -38 60 -91 82 -117 l41 -47 -56 -7 c-162 -20 -429 49
-607 157 -36 21 -68 39 -71 39 -9 0 86 -174 116 -212 26 -35 27 -38 9 -38 -32
0 -190 59 -270 101 -41 21 -76 37 -78 35 -6 -6 38 -100 54 -118 21 -23 18 -23
-69 8 -107 39 -199 88 -263 140 -31 25 -59 44 -61 42 -9 -9 30 -117 67 -187
l39 -73 -27 6 c-72 17 -157 70 -230 145 l-75 76 7 -55 c6 -50 17 -105 32 -154
5 -18 0 -19 -64 -14 -76 6 -148 33 -205 78 -20 17 -40 30 -43 30 -12 0 7 -64
31 -108 l23 -43 -25 -9 c-74 -29 -194 5 -272 76 -28 24 -53 44 -56 44 -3 0 -6
-25 -6 -55 0 -64 20 -118 49 -137 12 -7 21 -16 21 -19 0 -3 -26 -18 -59 -33
-121 -54 -230 -18 -255 87 -9 40 -21 34 -46 -25 -31 -71 -39 -188 -16 -242 9
-22 14 -41 12 -43 -7 -7 -98 35 -119 55 -57 52 -79 165 -53 276 41 172 146
348 302 505 57 57 104 106 104 109 0 2 -8 1 -17 -3 -10 -4 -38 -14 -62 -21
l-44 -14 7 57 c15 126 113 290 251 421 102 97 192 157 370 249 l140 72 -67 1
-67 0 9 31 c38 133 143 239 286 290 71 25 285 38 348 20 22 -6 41 -9 43 -7 2
1 -4 17 -13 35 -32 63 15 130 134 188 69 35 83 38 177 41 114 5 184 -9 293
-57 37 -16 68 -28 69 -27 8 8 -19 69 -41 93 -37 40 -30 63 30 95 108 58 245
73 402 43 76 -15 82 -15 119 4 21 10 45 21 53 24 31 11 128 7 183 -8z m-1948
-2573 c0 -80 3 -93 27 -130 31 -46 98 -90 161 -104 60 -14 144 -1 170 25 l22
22 -35 6 c-53 8 -80 27 -96 64 -15 37 -18 76 -7 114 6 23 6 23 22 -9 22 -47
81 -91 129 -97 38 -5 40 -7 46 -49 13 -95 89 -194 181 -235 96 -43 241 -40
340 5 28 13 105 59 171 103 65 44 124 82 131 86 7 5 15 -10 22 -44 16 -72 64
-158 119 -214 62 -62 180 -120 274 -135 93 -14 119 -25 154 -61 23 -24 28 -39
31 -91 7 -107 8 -111 50 -105 45 8 90 50 103 96 25 89 2 249 -50 354 l-30 62
58 -60 c80 -84 115 -160 120 -255 3 -64 0 -82 -21 -122 -27 -54 -20 -58 38
-25 52 29 83 77 91 141 l7 51 13 -35 c23 -63 17 -130 -15 -191 -86 -159 -86
-158 -86 -254 0 -70 5 -100 21 -135 28 -60 107 -146 158 -172 58 -28 105 -76
112 -113 4 -23 -4 -49 -30 -105 -31 -63 -36 -85 -36 -144 0 -89 16 -142 56
-182 33 -32 108 -64 152 -64 37 0 20 -11 -31 -21 -57 -10 -113 3 -146 35 -27
26 -28 26 -45 7 -10 -11 -20 -37 -23 -60 -6 -47 16 -90 77 -145 45 -41 38 -46
-21 -15 -23 11 -43 19 -45 16 -2 -2 12 -22 31 -44 50 -59 121 -87 220 -88 44
0 90 4 101 8 20 7 21 5 15 -25 -20 -89 49 -129 163 -96 27 8 63 33 104 73 34
34 62 56 62 50 0 -21 -72 -324 -101 -430 -57 -202 -169 -449 -281 -622 -67
-104 -220 -254 -338 -332 -394 -259 -1103 -490 -1735 -566 -187 -23 -367 -17
-447 14 -67 26 -151 98 -179 153 -12 24 -24 76 -30 131 -16 154 -28 202 -89
361 -65 170 -140 397 -171 519 -11 45 -54 187 -95 317 -42 129 -84 271 -94
315 -50 208 -30 438 55 623 l34 72 48 0 c47 0 124 28 137 49 5 7 -10 11 -47
11 -40 0 -63 6 -88 23 -42 28 -93 116 -77 134 17 21 24 15 37 -26 12 -43 70
-101 101 -101 45 0 77 90 49 142 -6 11 -8 22 -5 25 6 6 136 -46 136 -54 0 -20
-133 -312 -186 -408 -87 -158 -140 -264 -148 -297 -10 -43 22 -162 57 -215 19
-28 66 -71 117 -107 90 -65 153 -138 172 -198 14 -49 48 -79 89 -81 43 -2 59
27 59 106 0 107 -48 166 -197 241 -137 68 -201 128 -225 208 -14 47 -5 70 148
358 168 318 202 424 183 575 -11 90 -60 227 -110 310 -46 76 -134 157 -217
197 -54 27 -79 33 -129 33 -35 0 -63 4 -63 9 0 4 14 48 30 98 40 118 95 233
165 341 l57 87 38 -34 c82 -74 228 -98 325 -52 46 21 125 94 125 115 0 5 -17
3 -38 -6 -77 -30 -164 19 -190 105 -15 51 -15 68 3 128 11 37 66 124 78 124 1
0 2 -40 2 -88z m678 -97 c30 -59 110 -115 162 -115 37 0 114 42 181 99 32 27
60 48 62 46 7 -7 -50 -95 -87 -133 -104 -107 -268 -108 -338 -3 -24 35 -31
107 -16 161 l7 25 6 -25 c4 -14 14 -39 23 -55z m-1177 -949 c66 -31 144 -89
144 -105 0 -5 -19 -14 -42 -21 -56 -16 -131 -54 -147 -74 -8 -9 -17 -16 -21
-16 -10 0 -67 148 -75 197 -5 35 -4 42 12 46 39 10 61 6 129 -27z m243 -190
c33 -18 94 -83 116 -127 9 -17 13 -29 8 -27 -96 47 -113 51 -201 56 -56 3
-117 -1 -153 -8 -33 -7 -62 -10 -66 -7 -11 11 69 79 122 103 58 27 132 31 174
10z m3791 -858 c0 -41 -21 -78 -73 -125 -41 -38 -87 -69 -87 -59 0 2 16 37 35
77 39 82 45 137 20 196 -8 19 -15 37 -15 40 0 2 27 -19 60 -48 48 -41 60 -58
60 -81z m240 17 c0 -37 -29 -135 -71 -234 -22 -53 -43 -103 -46 -111 -3 -8 11
1 31 20 52 48 123 158 159 243 16 40 31 73 32 75 7 8 65 -35 65 -49 0 -27 -31
-122 -57 -174 -80 -157 -234 -316 -412 -426 -34 -20 -56 -29 -59 -21 -9 28
-50 78 -81 99 -42 28 -95 30 -137 4 -35 -21 -83 -80 -85 -102 -2 -30 -17 38
-18 82 -3 149 113 280 229 259 47 -9 86 7 160 63 30 24 67 48 81 54 61 26 106
126 116 255 l6 77 43 -47 c24 -26 43 -56 44 -67z m-461 -995 c109 -55 180
-223 168 -395 -20 -276 -206 -424 -342 -273 -79 87 -121 223 -112 363 9 137
63 254 141 300 50 30 94 32 145 5z m-380 -525 c50 -182 136 -303 246 -344 31
-12 73 -21 94 -21 37 0 39 -1 45 -41 14 -86 151 -412 206 -490 12 -16 21 -31
19 -33 -2 -1 -16 -9 -30 -19 -45 -27 -71 -96 -67 -173 l3 -66 -38 -13 c-83
-28 -132 -109 -125 -206 4 -52 2 -59 -14 -59 -32 0 -92 -30 -127 -63 -45 -43
-71 -101 -71 -163 l0 -51 -61 -6 c-83 -7 -144 -46 -186 -117 -25 -40 -33 -66
-33 -101 l0 -46 -58 -6 c-68 -6 -124 -32 -169 -79 -38 -39 -72 -112 -73 -152
0 -21 -4 -27 -16 -22 -35 13 -121 17 -159 7 -88 -23 -157 -89 -177 -169 -10
-39 -10 -40 -36 -26 -16 8 -57 14 -97 14 -112 0 -194 -47 -229 -132 l-16 -36
-50 19 c-90 34 -203 20 -274 -35 l-31 -23 -37 31 -36 32 5 199 c4 152 1 229
-11 322 -9 67 -16 139 -16 160 0 142 160 504 312 709 97 130 355 391 618 624
101 91 241 218 310 284 136 129 350 355 350 370 0 21 9 -3 29 -79z m810 -759
c37 -20 61 -58 61 -97 0 -46 -25 -69 -73 -69 -31 0 -46 7 -73 34 -41 41 -46
87 -12 123 25 26 57 29 97 9z m-50 -291 c30 -15 61 -69 61 -105 0 -12 -14 -35
-30 -52 -26 -25 -36 -29 -62 -24 -66 13 -104 84 -78 146 21 50 58 62 109 35z
m-3044 -207 c-19 -35 -57 -118 -84 -185 -59 -143 -140 -309 -219 -446 -67
-117 -71 -114 -80 68 l-7 120 -28 -60 c-39 -83 -117 -321 -163 -495 -20 -80
-40 -148 -44 -153 -10 -12 -60 120 -60 161 l0 37 -20 -25 c-25 -32 -56 -127
-70 -210 -12 -76 -12 -341 -1 -450 4 -41 7 -76 5 -78 -7 -9 -75 37 -126 86
l-58 55 0 -59 c0 -32 9 -108 20 -169 11 -60 23 -162 26 -225 l5 -115 -20 23
c-11 13 -30 51 -43 84 l-22 61 -38 -44 c-47 -54 -120 -194 -143 -272 l-17 -59
-35 53 c-84 123 -118 267 -111 463 7 185 48 329 133 475 20 34 35 65 33 70 -4
11 -134 -42 -171 -70 -16 -11 -30 -19 -32 -17 -8 8 63 166 100 223 59 93 112
152 210 232 49 41 98 85 108 99 18 24 18 24 -5 24 -21 0 -117 -27 -162 -45
-17 -8 -17 -6 -3 22 63 120 306 326 720 608 121 82 418 270 434 274 2 1 -13
-27 -32 -61z m2918 -89 c32 -25 51 -87 38 -122 -24 -63 -105 -77 -152 -26 -84
89 20 223 114 148z m-178 -289 c25 -25 30 -38 30 -78 0 -62 -24 -98 -75 -113
-134 -40 -204 160 -77 217 43 19 86 10 122 -26z m-2372 -235 c24 -24 30 -69
13 -108 -26 -63 -89 -58 -102 8 -8 43 11 94 40 105 30 12 33 12 49 -5z m2094
-35 c72 -43 84 -148 24 -202 -59 -53 -130 -50 -180 8 -25 28 -31 43 -31 82 0
54 17 85 64 113 40 24 83 24 123 -1z m-2137 -230 c51 -27 46 -138 -7 -180 -35
-27 -59 -25 -94 9 -33 33 -37 71 -15 125 21 51 70 71 116 46z m1846 -74 c29
-29 34 -41 34 -79 0 -80 -75 -140 -146 -117 -50 17 -74 53 -74 112 0 43 4 54
34 84 28 28 42 34 76 34 34 0 48 -6 76 -34z m-379 -205 c100 -46 107 -166 14
-228 -93 -62 -211 12 -198 124 6 52 44 99 92 112 43 13 45 13 92 -8z m-1465
-52 c23 -12 48 -67 48 -105 0 -40 -30 -94 -64 -115 -45 -27 -82 -24 -117 10
-24 24 -29 38 -29 76 0 52 10 77 48 118 28 29 76 36 114 16z m1105 -145 c55
-35 75 -125 39 -179 -79 -120 -259 -59 -243 82 11 98 121 150 204 97z m-819
-124 c86 -52 74 -177 -20 -226 -82 -42 -194 51 -172 142 23 92 114 131 192 84z
m413 -13 c46 -31 61 -62 56 -120 -10 -116 -148 -162 -228 -76 -37 39 -45 90
-22 137 38 77 127 104 194 59z"/>
<path d="M3625 6709 c-233 -25 -458 -104 -633 -221 -46 -32 -66 -58 -76 -100
-8 -33 22 -68 57 -68 20 0 25 -8 35 -57 13 -65 61 -171 98 -220 32 -42 30 -46
-11 -39 -44 9 -46 -9 -8 -55 48 -57 135 -83 197 -59 31 11 33 2 11 -60 -27
-77 -31 -74 143 -131 136 -45 171 -53 257 -57 207 -10 395 72 395 173 l0 32
55 -5 c68 -6 130 16 171 59 l29 31 -50 45 c-98 88 -285 222 -359 258 -85 41
-202 68 -361 85 -121 12 -206 28 -218 40 -13 12 61 68 148 110 98 49 196 70
324 70 179 0 304 -37 549 -162 165 -83 172 -86 150 -55 -50 72 -245 255 -319
301 -129 79 -170 90 -349 92 -85 1 -191 -2 -235 -7z m180 -513 c54 -27 102
-61 156 -114 44 -41 79 -78 79 -83 0 -4 -39 6 -87 22 -205 70 -276 83 -445 84
-170 0 -179 3 -140 51 48 60 127 85 258 81 94 -2 106 -5 179 -41z m-367 -319
c88 -156 200 -151 245 11 13 49 10 48 140 11 l67 -20 -14 -28 c-8 -15 -36 -51
-61 -79 -26 -29 -43 -52 -37 -52 5 0 37 18 72 41 34 22 64 38 66 36 2 -2 -5
-19 -15 -38 -12 -23 -36 -43 -76 -64 -52 -27 -69 -30 -144 -30 -73 0 -93 4
-136 27 -63 32 -103 71 -126 123 -16 35 -26 115 -15 115 2 0 18 -24 34 -53z"/>
<path d="M2970 5095 c0 -3 16 -30 36 -60 57 -85 60 -173 8 -234 -38 -45 -26
-54 33 -26 56 26 93 71 93 115 0 14 -9 44 -19 67 -23 49 -110 143 -134 143 -9
0 -17 -2 -17 -5z"/>
<path d="M2575 4944 c-126 -46 -76 -122 73 -108 63 6 72 4 149 -31 92 -42 128
-42 139 -1 8 33 -9 61 -58 96 -78 57 -214 77 -303 44z"/>
<path d="M2460 4378 c-36 -60 -19 -176 31 -211 17 -12 17 -16 3 -58 -29 -82 0
-160 95 -263 32 -34 64 -82 75 -108 10 -27 21 -48 24 -48 4 0 39 9 77 20 86
25 173 27 244 6 67 -20 81 -20 81 -2 0 21 -59 63 -113 82 l-46 16 87 59 c90
61 132 93 132 102 0 3 -15 1 -32 -3 -132 -36 -402 -53 -457 -30 -53 22 -73 81
-50 147 10 30 10 30 49 17 33 -11 46 -11 87 1 69 21 132 19 284 -11 88 -17
165 -26 224 -25 57 0 107 -5 138 -15 27 -9 51 -14 54 -11 12 12 -11 69 -38 96
-23 23 -43 31 -101 41 -132 21 -191 45 -321 134 -72 48 -161 85 -205 86 -19 0
-65 -14 -103 -31 -66 -28 -109 -32 -109 -8 0 11 -60 49 -78 49 -7 0 -21 -15
-32 -32z"/>
<path d="M5901 4165 c-43 -37 -72 -122 -78 -231 -9 -152 39 -264 112 -264 82
0 128 95 129 265 1 124 -11 169 -56 221 -36 41 -65 43 -107 9z"/>
</g>
</svg>
